PathFileType	4	(X/Y/Z)	Walk3.trc
DataRate	CameraRate	NumFrames	NumMarkers	Units	OrigDataRate	OrigDataStartFrame	OrigNumFrames
200.000000	200.000000	7	60	mm	200.000000	542	799
Frame#	Times		LToe		RCAR		RWRU		LLFC		RWRR		LFA1		RACR1		LUA1		STRN		LACR1		LElbow		RTH3		RLFC		LCAR		RFA1		RTB2		RToe		RFHD		RMT1		RMFC		LWRU		RTH2		RTB3		RMT5		LPSI		C7		LWRR		RPSI		RTB1		LTB1		RCAL		LTH3		LFHD		RTB4		LTB4		RASI		LTH4		RMMAL		LMT1		RLMAL		CLAV		LMFC		LTH2		LBHD		RBHD		RElbow		LTB2		LTB3		RUA1		RBack		LMMAL		RTH4		T10		LTH1		LCAL		RTH1		LMT5		LElbowM		RElbowM		LLMAL
			X1	Y1	Z1	X2	Y2	Z2	X3	Y3	Z3	X4	Y4	Z4	X5	Y5	Z5	X6	Y6	Z6	X7	Y7	Z7	X8	Y8	Z8	X9	Y9	Z9	X10	Y10	Z10	X11	Y11	Z11	X12	Y12	Z12	X13	Y13	Z13	X14	Y14	Z14	X15	Y15	Z15	X16	Y16	Z16	X17	Y17	Z17	X18	Y18	Z18	X19	Y19	Z19	X20	Y20	Z20	X21	Y21	Z21	X22	Y22	Z22	X23	Y23	Z23	X24	Y24	Z24	X25	Y25	Z25	X26	Y26	Z26	X27	Y27	Z27	X28	Y28	Z28	X29	Y29	Z29	X30	Y30	Z30	X31	Y31	Z31	X32	Y32	Z32	X33	Y33	Z33	X34	Y34	Z34	X35	Y35	Z35	X36	Y36	Z36	X37	Y37	Z37	X38	Y38	Z38	X39	Y39	Z39	X40	Y40	Z40	X41	Y41	Z41	X42	Y42	Z42	X43	Y43	Z43	X44	Y44	Z44	X45	Y45	Z45	X46	Y46	Z46	X47	Y47	Z47	X48	Y48	Z48	X49	Y49	Z49	X50	Y50	Z50	X51	Y51	Z51	X52	Y52	Z52	X53	Y53	Z53	X54	Y54	Z54	X55	Y55	Z55	X56	Y56	Z56	X57	Y57	Z57	X58	Y58	Z58	X59	Y59	Z59	X60	Y60	Z60

542	2.71	-202.09	26.95	-31.762	58.316	817.99	389.01	5.1733	865.02	379.62	-46.333	490.32	-135.85	78.25	860.84	330.13	136.93	1034.1	-275.34	57.521	1483.8	225.88	73.13	1332.1	-227	201.71	1289.9	36.13	71.387	1517.9	-148.61	47.52	1160.8	-270.9	133.97	637.87	214.45	185.38	509.7	207.5	189.14	874.79	-288.02	43.336	1006.5	353.48	268.94	286.24	174.4	449.2	50.339	102.98	190.73	1705.3	108.33	399.81	56.445	89.875	175.77	499.07	59.367	114.2	903.13	-287.02	153.11	738.32	234.93	271.64	204.01	106.96	358.49	29.889	181.75	-81.984	1057.8	-42.925	-40.735	1541.6	39.979	189.23	912.39	-231.27	-84.7	1051.7	67.903	257.85	375.89	119.96	-104.43	350.86	-34.155	180.74	39.866	103.35	17.659	620.09	-160.4	193.41	1712	3.2554	264.45	289.27	113.07	-166.94	293.7	-27.893	133.42	1033.1	184.88	31.441	705.38	-173.84	265.66	107.32	57.86	-247.31	48.618	-17.558	236.49	71.525	147.66	130.62	1459.5	28.838	-32.51	483.37	-0.45649	84.017	701.11	-152.29	31.24	1676.2	-22.566	23.271	1670	118.97	-23.777	1143.8	329.2	-156.56	276.53	-87.376	-227.5	233.11	-23.163	29.082	1302	294.82	-101.76	1416.1	151.33	-307.74	173.62	18.769	99.163	714.09	220.79	-70.993	1183.5	12.613	44.677	789.75	-187.17	-406.52	191.77	-36.915	64.727	795.6	229.27	-289.35	52.857	-102.75	13.902	1133.5	-186.91	-43.256	1120.4	237.75	-344.48	167.06	-77.871
543	2.715	-201.4	26.406	-31.895	65.193	819.01	390.13	11.983	865.94	380.68	-35.849	490.04	-135.63	85.127	861.91	331.3	140.81	1034.8	-274.39	63.249	1484.7	226.76	78.596	1333.3	-226.02	207.3	1290.8	36.845	77.187	1519	-147.54	52.338	1162.1	-269.9	137.8	638.54	215.23	188.48	509.97	208.2	191.69	874.76	-287.06	49.799	1007.5	354.57	270.69	285.98	174.74	449.47	49.439	102.71	196.37	1706	109.3	400.06	56.006	89.567	178.93	499.56	60.082	117.1	904.06	-286.46	157.58	738.86	235.83	272.74	203.83	107.17	358.6	29.768	182.03	-76.573	1058.4	-42.425	-35.166	1542.5	40.965	191.94	912.42	-230.33	-79.187	1052.6	68.501	260.12	375.77	120.43	-94.512	351.12	-34.342	180.85	39.999	103.49	26.742	619.64	-160.3	199.03	1712.8	4.2256	266.12	289.12	113.42	-158.03	295.08	-27.823	138.89	1034.4	185.51	39.536	705.21	-173.45	266.02	107.25	57.925	-245.21	49.579	-17.443	236.76	71.571	147.75	136.18	1460.4	29.762	-20.289	481.93	-0.41683	92.147	701.36	-152.06	36.831	1677.1	-21.562	28.892	1670.8	119.98	-17.67	1144.6	330.2	-148.57	278.12	-87.546	-219.67	235.6	-22.849	35.078	1302.9	295.76	-96.016	1416.8	152.27	-300.39	177.19	19.485	103.47	714.92	221.58	-65.558	1184.4	13.285	51.774	789.69	-186.35	-398.93	198.59	-34.791	69.463	796.63	230.2	-287.68	55.588	-102	18.47	1135.1	-185.95	-37.019	1121.2	238.74	-338.46	172.04	-76.665
544	2.72	-200.48	25.861	-32.133	72.165	820.05	391.25	18.866	866.84	381.75	-25.237	489.79	-135.43	92.077	863	332.47	144.71	1035.5	-273.5	68.994	1485.6	227.61	84.044	1334.6	-225.07	212.86	1291.7	37.493	82.949	1520.2	-146.5	57.144	1163.4	-268.98	141.45	639.14	215.94	191.42	510.22	208.84	194.29	874.75	-286.1	56.291	1008.5	355.68	272.33	285.71	175.04	449.73	48.62	102.42	201.98	1706.8	110.27	400.29	55.637	89.226	181.94	500.02	60.691	120.08	905.02	-285.96	161.91	739.32	236.7	273.77	203.66	107.34	358.69	29.71	182.24	-71.241	1058.9	-41.826	-29.609	1543.3	41.938	194.67	912.49	-229.41	-73.724	1053.5	69.172	262.29	375.65	120.84	-84.328	351.41	-34.543	180.95	40.105	103.61	35.86	619.25	-160.23	204.62	1713.6	5.1833	267.71	288.97	113.72	-148.82	296.48	-27.763	144.31	1035.6	186.12	47.627	705.08	-173.09	266.36	107.17	57.937	-242.78	50.683	-17.38	236.99	71.632	147.79	141.71	1461.4	30.643	-7.818	480.49	-0.37096	100.29	701.69	-151.91	42.407	1678	-20.585	34.487	1671.7	120.96	-11.566	1145.4	331.21	-140.28	279.78	-87.735	-211.5	238.1	-22.535	41.076	1303.7	296.69	-90.281	1417.5	153.21	-292.65	180.75	20.203	107.63	715.69	222.32	-60.16	1185.3	14.008	58.826	789.68	-185.54	-390.89	205.39	-32.58	74.099	797.62	231.08	-285.75	58.524	-101.25	22.999	1136.7	-185.08	-30.809	1121.9	239.76	-332.07	177.06	-75.422
545	2.725	-199.29	25.338	-32.492	79.23	821.09	392.36	25.822	867.73	382.81	-14.514	489.6	-135.24	99.099	864.09	333.62	148.63	1036.2	-272.66	74.752	1486.4	228.44	89.466	1335.7	-224.16	218.38	1292.6	38.076	88.666	1521.3	-145.48	61.941	1164.6	-268.13	144.94	639.68	216.58	194.22	510.44	209.41	196.95	874.77	-285.14	62.811	1009.5	356.79	273.87	285.45	175.3	449.96	47.875	102.12	207.57	1707.6	111.22	400.5	55.328	88.865	184.82	500.47	61.201	123.12	906.01	-285.54	166.09	739.7	237.53	274.75	203.48	107.46	358.79	29.7	182.38	-65.986	1059.5	-41.132	-24.066	1544.2	42.9	197.43	912.62	-228.51	-68.313	1054.5	69.914	264.36	375.52	121.21	-73.904	351.72	-34.755	181.03	40.188	103.7	44.998	618.92	-160.17	210.21	1714.4	6.1254	269.23	288.81	113.98	-139.33	297.9	-27.708	149.69	1036.8	186.72	55.701	705.01	-172.76	266.66	107.07	57.904	-239.99	51.934	-17.378	237.18	71.706	147.79	147.22	1462.3	31.481	4.8662	479.1	-0.31897	108.42	702.11	-151.85	47.967	1678.9	-19.636	40.057	1672.5	121.92	-5.4637	1146.2	332.24	-131.73	281.49	-87.938	-203.02	240.62	-22.225	47.074	1304.5	297.62	-84.561	1418.2	154.14	-284.54	184.26	20.92	111.64	716.42	222.98	-54.799	1186.2	14.774	65.827	789.71	-184.76	-382.41	212.14	-30.301	78.634	798.56	231.91	-283.52	61.662	-100.51	27.49	1138.2	-184.31	-24.628	1122.7	240.8	-325.32	182.11	-74.152
546	2.73	-197.8	24.867	-32.986	86.387	822.13	393.46	32.849	868.59	383.88	-3.6994	489.47	-135.06	106.19	865.19	334.77	152.57	1036.9	-271.87	80.523	1487.2	229.24	94.859	1336.9	-223.29	223.85	1293.5	38.597	94.333	1522.5	-144.49	66.728	1165.9	-267.35	148.29	640.18	217.15	196.87	510.64	209.92	199.67	874.82	-284.2	69.36	1010.5	357.91	275.31	285.18	175.53	450.18	47.196	101.81	213.14	1708.3	112.15	400.69	55.068	88.499	187.59	500.9	61.622	126.25	907.01	-285.18	170.15	740.01	238.29	275.69	203.3	107.56	358.87	29.726	182.46	-60.808	1060	-40.349	-18.537	1545	43.85	200.23	912.79	-227.64	-62.957	1055.4	70.721	266.35	375.38	121.54	-63.268	352.08	-34.968	181.09	40.252	103.76	54.142	618.67	-160.12	215.77	1715.2	7.0496	270.69	288.65	114.21	-129.58	299.34	-27.656	155.02	1037.9	187.31	63.75	704.98	-172.44	266.95	106.96	57.834	-236.81	53.331	-17.444	237.35	71.788	147.74	152.71	1463.2	32.276	17.723	477.76	-0.26298	116.55	702.61	-151.86	53.509	1679.8	-18.716	45.601	1673.4	122.85	0.64119	1147	333.3	-122.9	283.27	-88.147	-194.22	243.13	-21.919	53.072	1305.3	298.54	-78.855	1419	155.07	-276.07	187.73	21.635	115.52	717.11	223.6	-49.48	1187.1	15.575	72.77	789.79	-184.01	-373.53	218.79	-27.975	83.069	799.46	232.69	-280.95	64.989	-99.795	31.944	1139.7	-183.63	-18.477	1123.4	241.87	-318.21	187.16	-72.865
547	2.735	-195.96	24.478	-33.624	93.634	823.18	394.55	39.943	869.43	384.94	7.1876	489.42	-134.89	113.34	866.3	335.9	156.55	1037.7	-271.14	86.306	1487.9	230.01	100.21	1338	-222.47	229.28	1294.3	39.06	99.944	1523.5	-143.54	71.503	1167.2	-266.65	151.54	640.63	217.67	199.41	510.83	210.38	202.46	874.88	-283.28	75.938	1011.5	359.02	276.64	284.91	175.74	450.39	46.58	101.5	218.69	1709	113.06	400.87	54.851	88.139	190.26	501.31	61.965	129.45	908.03	-284.91	174.1	740.29	239.01	276.59	203.12	107.63	358.96	29.777	182.5	-55.704	1060.5	-39.483	-13.021	1545.8	44.791	203.07	913.01	-226.79	-57.658	1056.3	71.586	268.27	375.23	121.85	-52.447	352.5	-35.176	181.14	40.299	103.8	63.279	618.5	-160.08	221.32	1716	7.9533	272.1	288.48	114.42	-119.6	300.81	-27.603	160.3	1038.9	187.9	71.762	705.02	-172.15	267.22	106.85	57.735	-233.2	54.873	-17.583	237.5	71.875	147.65	158.16	1464	33.029	30.71	476.53	-0.20662	124.66	703.21	-151.96	59.033	1680.7	-17.824	51.122	1674.2	123.76	6.7522	1147.7	334.38	-113.82	285.1	-88.353	-185.13	245.63	-21.617	59.069	1306.1	299.46	-73.166	1419.7	156	-267.28	191.13	22.346	119.3	717.76	224.17	-44.204	1188	16.404	79.65	789.94	-183.3	-364.26	225.32	-25.621	87.407	800.32	233.43	-277.98	68.492	-99.106	36.362	1141.2	-183.05	-12.355	1124	242.97	-310.75	192.19	-71.566
548	2.74	-193.71	24.204	-34.409	100.97	824.23	395.64	47.104	870.24	386.01	18.129	489.47	-134.72	120.54	867.41	337.02	160.55	1038.4	-270.46	92.097	1488.6	230.76	105.53	1339.1	-221.69	234.67	1295	39.469	105.49	1524.6	-142.62	76.267	1168.4	-266.03	154.68	641.06	218.14	201.84	511	210.79	205.32	874.96	-282.37	82.546	1012.4	360.13	277.89	284.64	175.93	450.58	46.023	101.21	224.22	1709.7	113.95	401.04	54.67	87.794	192.85	501.72	62.244	132.75	909.06	-284.71	177.96	740.53	239.66	277.46	202.94	107.69	359.03	29.844	182.51	-50.672	1061.1	-38.547	-7.5193	1546.7	45.722	205.96	913.27	-225.99	-52.418	1057.1	72.5	270.12	375.08	122.14	-41.468	352.98	-35.371	181.17	40.333	103.82	72.396	618.42	-160.03	226.85	1716.7	8.8346	273.45	288.31	114.62	-109.4	302.3	-27.541	165.53	1039.9	188.48	79.731	705.11	-171.86	267.47	106.73	57.614	-229.14	56.558	-17.799	237.63	71.966	147.54	163.59	1464.8	33.741	43.781	475.42	-0.15391	132.74	703.91	-152.13	64.539	1681.5	-16.961	56.622	1675	124.63	12.873	1148.5	335.47	-104.5	286.99	-88.545	-175.76	248.12	-21.316	65.066	1306.8	300.37	-67.494	1420.4	156.94	-258.18	194.47	23.054	122.98	718.38	224.7	-38.974	1188.8	17.252	86.465	790.15	-182.61	-354.65	231.66	-23.258	91.651	801.16	234.11	-274.58	72.152	-98.454	40.743	1142.6	-182.57	-6.2599	1124.6	244.09	-302.95	197.16	-70.265
